<?xml version="1.0" standalone="no"?>
<!DOCTYPE svg PUBLIC "-//W3C//DTD SVG 20010904//EN"
 "http://www.w3.org/TR/2001/REC-SVG-20010904/DTD/svg10.dtd">
<svg version="1.0" xmlns="http://www.w3.org/2000/svg"
 width="752.000000pt" height="395.000000pt" viewBox="0 0 752.000000 395.000000"
 preserveAspectRatio="xMidYMid meet">

<g transform="translate(0.000000,395.000000) scale(0.100000,-0.100000)"
fill="#353535" stroke="none">
<path d="M0 1975 l0 -1975 3760 0 3760 0 0 1975 0 1975 -3760 0 -3760 0 0
-1975z m4430 675 c11 -11 20 -33 20 -50 l0 -30 -690 0 -690 0 0 30 c0 17 9 39
20 50 20 20 33 20 670 20 637 0 650 0 670 -20z m20 -385 l0 -265 -690 0 -690
0 0 265 0 265 690 0 690 0 0 -265z m0 -580 l0 -265 -690 0 -690 0 0 265 0 265
690 0 690 0 0 -265z m0 -335 c0 -17 -9 -39 -20 -50 -20 -20 -33 -20 -670 -20
-637 0 -650 0 -670 20 -11 11 -20 33 -20 50 l0 30 690 0 690 0 0 -30z"/>
<path d="M3245 2456 c-41 -18 -84 -63 -106 -111 -78 -170 105 -354 276 -276
158 71 167 298 16 378 -51 26 -137 31 -186 9z m183 -55 c63 -44 88 -133 58
-204 -18 -44 -78 -95 -122 -103 -43 -8 -101 8 -139 38 -32 25 -64 91 -65 132
0 49 38 113 83 141 54 33 136 31 185 -4z"/>
<path d="M3310 2390 c0 -5 -11 -20 -25 -34 -14 -14 -25 -33 -25 -43 0 -30 29
-62 63 -71 39 -10 45 -45 10 -50 -13 -2 -23 1 -23 7 0 6 -11 11 -25 11 -23 0
-25 -2 -14 -22 7 -13 18 -27 25 -31 8 -4 14 -15 14 -22 0 -8 9 -15 20 -15 11
0 20 4 20 10 0 5 11 20 25 34 14 14 25 37 25 51 0 29 -32 65 -59 65 -10 0 -24
7 -31 16 -11 12 -10 18 3 31 15 15 18 15 35 0 21 -19 52 -23 52 -7 0 6 -11 22
-25 36 -14 14 -25 29 -25 34 0 6 -9 10 -20 10 -11 0 -20 -4 -20 -10z"/>
<path d="M3835 2355 c-56 -55 -15 -177 53 -161 41 10 62 42 62 93 0 49 -33 93
-70 93 -11 0 -32 -11 -45 -25z m63 -27 c14 -14 16 -57 3 -76 -5 -8 -17 -12
-27 -10 -23 4 -32 62 -13 84 14 17 21 18 37 2z"/>
<path d="M4076 2359 c-22 -18 -26 -28 -26 -74 0 -46 4 -56 27 -75 19 -15 35
-19 53 -15 43 11 55 31 55 91 0 47 -4 59 -24 75 -30 24 -52 24 -85 -2z m62
-73 c3 -45 2 -47 -20 -44 -18 2 -24 10 -26 36 -4 35 13 65 32 59 6 -2 12 -25
14 -51z"/>
<path d="M3980 2240 c0 -13 7 -20 20 -20 13 0 20 7 20 20 0 13 -7 20 -20 20
-13 0 -20 -7 -20 -20z"/>
<path d="M3600 2120 c0 -20 7 -20 400 -20 393 0 400 0 400 20 0 20 -7 20 -400
20 -393 0 -400 0 -400 -20z"/>
<path d="M3120 1880 c0 -19 7 -20 260 -20 253 0 260 1 260 20 0 19 -7 20 -260
20 -253 0 -260 -1 -260 -20z"/>
<path d="M3760 1880 c0 -19 7 -20 95 -20 88 0 95 1 95 20 0 19 -7 20 -95 20
-88 0 -95 -1 -95 -20z"/>
<path d="M4070 1880 c0 -19 7 -20 115 -20 108 0 115 1 115 20 0 19 -7 20 -115
20 -108 0 -115 -1 -115 -20z"/>
<path d="M4360 1880 c0 -13 7 -20 20 -20 13 0 20 7 20 20 0 13 -7 20 -20 20
-13 0 -20 -7 -20 -20z"/>
<path d="M3120 1780 c0 -19 7 -20 260 -20 253 0 260 1 260 20 0 19 -7 20 -260
20 -253 0 -260 -1 -260 -20z"/>
<path d="M3760 1780 c0 -19 7 -20 95 -20 88 0 95 1 95 20 0 19 -7 20 -95 20
-88 0 -95 -1 -95 -20z"/>
<path d="M4070 1780 c0 -19 7 -20 115 -20 108 0 115 1 115 20 0 19 -7 20 -115
20 -108 0 -115 -1 -115 -20z"/>
<path d="M4360 1780 c0 -13 7 -20 20 -20 13 0 20 7 20 20 0 13 -7 20 -20 20
-13 0 -20 -7 -20 -20z"/>
<path d="M3120 1690 c0 -19 7 -20 260 -20 253 0 260 1 260 20 0 19 -7 20 -260
20 -253 0 -260 -1 -260 -20z"/>
<path d="M3760 1690 c0 -19 7 -20 95 -20 88 0 95 1 95 20 0 19 -7 20 -95 20
-88 0 -95 -1 -95 -20z"/>
<path d="M4070 1690 c0 -19 7 -20 115 -20 108 0 115 1 115 20 0 19 -7 20 -115
20 -108 0 -115 -1 -115 -20z"/>
<path d="M4360 1690 c0 -13 7 -20 20 -20 13 0 20 7 20 20 0 13 -7 20 -20 20
-13 0 -20 -7 -20 -20z"/>
<path d="M3120 1590 c0 -19 7 -20 260 -20 253 0 260 1 260 20 0 19 -7 20 -260
20 -253 0 -260 -1 -260 -20z"/>
<path d="M3760 1590 c0 -19 7 -20 95 -20 88 0 95 1 95 20 0 19 -7 20 -95 20
-88 0 -95 -1 -95 -20z"/>
<path d="M4070 1590 c0 -19 7 -20 115 -20 108 0 115 1 115 20 0 19 -7 20 -115
20 -108 0 -115 -1 -115 -20z"/>
<path d="M4360 1590 c0 -13 7 -20 20 -20 13 0 20 7 20 20 0 13 -7 20 -20 20
-13 0 -20 -7 -20 -20z"/>
<path d="M3120 1500 c0 -19 7 -20 260 -20 253 0 260 1 260 20 0 19 -7 20 -260
20 -253 0 -260 -1 -260 -20z"/>
<path d="M3760 1500 c0 -19 7 -20 95 -20 88 0 95 1 95 20 0 19 -7 20 -95 20
-88 0 -95 -1 -95 -20z"/>
<path d="M4070 1500 c0 -19 7 -20 115 -20 108 0 115 1 115 20 0 19 -7 20 -115
20 -108 0 -115 -1 -115 -20z"/>
<path d="M4360 1500 c0 -13 7 -20 20 -20 13 0 20 7 20 20 0 13 -7 20 -20 20
-13 0 -20 -7 -20 -20z"/>
</g>
</svg>
