<?xml version="1.0" standalone="no"?>
<!DOCTYPE svg PUBLIC "-//W3C//DTD SVG 20010904//EN"
 "http://www.w3.org/TR/2001/REC-SVG-20010904/DTD/svg10.dtd">
<svg version="1.0" xmlns="http://www.w3.org/2000/svg"
 width="752.000000pt" height="395.000000pt" viewBox="0 0 752.000000 395.000000"
 preserveAspectRatio="xMidYMid meet">

<g transform="translate(0.000000,395.000000) scale(0.100000,-0.100000)"
fill="#353535" stroke="none">
<path d="M0 1975 l0 -1975 3760 0 3760 0 0 1975 0 1975 -3760 0 -3760 0 0
-1975z m4438 683 c22 -22 14 -92 -20 -159 -23 -45 -62 -94 -135 -169 l-103
-105 0 -410 c0 -433 0 -435 -46 -435 -29 0 -36 10 -77 120 -19 52 -62 163 -94
245 -33 83 -63 159 -67 169 -6 17 -32 -5 -171 -144 l-165 -165 0 -158 c0 -202
-11 -206 -82 -27 -55 138 -62 150 -80 132 -37 -37 -97 15 -69 60 7 11 9 24 4
28 -4 5 -64 31 -133 59 -178 71 -175 81 31 81 l163 0 158 157 c87 86 158 160
158 163 0 6 -149 67 -395 162 -147 57 -155 62 -155 92 0 46 1 46 439 46 l414
0 116 113 c92 91 127 118 171 135 62 24 120 28 138 10z"/>
</g>
</svg>
