<?xml version="1.0" standalone="no"?>
<!DOCTYPE svg PUBLIC "-//W3C//DTD SVG 20010904//EN"
 "http://www.w3.org/TR/2001/REC-SVG-20010904/DTD/svg10.dtd">
<svg version="1.0" xmlns="http://www.w3.org/2000/svg"
 width="752.000000pt" height="395.000000pt" viewBox="0 0 752.000000 395.000000"
 preserveAspectRatio="xMidYMid meet">

<g transform="translate(0.000000,395.000000) scale(0.100000,-0.100000)"
fill="#353535" stroke="none">
<path d="M0 1975 l0 -1975 3760 0 3760 0 0 1975 0 1975 -3760 0 -3760 0 0
-1975z m3916 705 c1 -30 -4 -58 -10 -62 -7 -5 -3 -70 16 -223 l27 -215 42 -48
c84 -94 84 -93 87 -476 3 -367 2 -377 -50 -421 l-30 -25 -231 0 c-255 0 -266
2 -305 60 l-23 34 3 346 c3 391 4 393 87 480 l42 44 27 218 c19 155 23 221 16
226 -9 5 -13 105 -5 120 0 1 70 1 154 0 l152 -3 1 -55z"/>
<path d="M3723 1993 c-12 -30 -13 -44 -4 -69 16 -44 14 -46 -20 -29 -17 9 -37
14 -45 11 -37 -14 7 -116 51 -116 16 0 25 -6 25 -16 0 -11 -6 -14 -22 -8 -13
4 -32 8 -43 8 -48 2 -15 -101 37 -111 16 -3 28 -12 28 -20 0 -11 -5 -13 -17
-8 -10 4 -30 10 -45 13 -23 3 -28 1 -28 -17 0 -40 33 -92 62 -98 26 -5 28 -9
28 -58 0 -60 19 -87 45 -65 10 8 15 30 15 65 0 49 2 53 28 58 29 6 62 58 62
98 0 18 -5 20 -27 17 -16 -3 -36 -9 -45 -13 -13 -5 -18 -3 -18 8 0 8 13 17 30
20 33 7 63 54 58 90 -3 23 -23 27 -65 13 -17 -6 -23 -3 -23 8 0 10 9 16 25 16
44 0 88 102 51 116 -8 3 -28 -2 -45 -11 -34 -17 -36 -15 -20 29 15 42 -10 106
-41 106 -15 0 -26 -11 -37 -37z"/>
</g>
</svg>
