<svg xmlns="http://www.w3.org/2000/svg" version="1.0" viewBox="0 0 752 395"><g fill="#373737" stroke-width="0"><path d="M0 197.5V395h752V0H0v197.5zm385.3-59.2c4.8 2.2 8.4 4.4 8 4.8-.5.5-7.4 3.7-15.3 7.3-8 3.5-19.6 8.6-25.8 11.4l-11.4 5.1-10.4-4.6c-5.7-2.6-10.4-5-10.4-5.4 0-.6 9.7-5.1 41.5-19 7-3.1 11.7-4.6 13-4.2 1.1.3 6 2.4 10.8 4.6zm28.9 12.9c6.5 2.9 11.8 5.5 11.8 5.8 0 .3-7.5 3.9-16.7 7.9-9.3 4.1-21.2 9.4-26.6 11.8l-9.7 4.4-12-5.3c-6.6-2.9-11.9-5.8-11.9-6.3.1-1.1 49.4-23.4 51.8-23.5.8 0 6.8 2.3 13.3 5.2zM341 172.3c12.9 5.7 24.7 11 26.3 11.7l2.7 1.3v33.9c0 18.6-.3 33.8-.7 33.8-2.2 0-51.1-22.5-52.5-24.2-1.6-1.8-1.8-5-1.8-35 0-26 .3-32.9 1.3-32.5.6.3 11.8 5.2 24.7 11zm90 8.2c0 10.7-.3 19.5-.7 19.5-.4 0-2.7-1-5.2-2.2-6.9-3.4-18.7-3.7-26.6-.7-7.1 2.7-14.9 9.9-18.5 17.4-2.1 4.2-2.5 6.4-2.5 14.5 0 8.4.3 10.1 2.8 14.7 1.5 2.9 2.7 5.7 2.7 6.2 0 .7-5.1 3.1-6.7 3.1-.2 0-.2-15.3-.1-34.1l.3-34.1L403 173c14.6-6.5 26.8-11.9 27.3-11.9.4-.1.7 8.7.7 19.4zm-7.2 22.1c10.8 5.4 16.8 15.9 16 28.2-.9 15.6-12.8 27-28.3 27.1-8.6.1-15-2.4-21.1-8.4-5.9-5.8-8.4-12-8.4-20.5 0-11.4 6.1-21.4 16.2-26.4 7.4-3.7 18.2-3.7 25.6 0z"/><path d="m415 227.5-7.4 7.5-3.8-3.7c-3.6-3.5-3.9-3.6-5.5-2-1.5 1.5-1.3 2 3.4 6.7 2.7 2.7 5.4 5 5.9 5s4.9-4 9.8-8.9c6.2-6.2 8.7-9.4 8.3-10.5-1.1-2.8-3.1-1.7-10.7 5.9z"/></g><g fill="#FFF" stroke-width="0"><path d="M346.8 145.8c-13.1 5.9-23.8 10.9-23.8 11.2 0 .3 4.1 2.3 9 4.4l9.1 3.8 24.2-10.7c13.3-5.9 24.5-11 25-11.4.9-.9-15.4-8.1-18-8-1 0-12.5 4.9-25.5 10.7zm28.6 12.6-25.1 11.2 10.7 4.7c5.8 2.6 11.2 4.7 11.8 4.7 1.1 0 43.7-18.6 48.6-21.2 1.6-.8.4-1.7-7.5-5.3-5.2-2.3-10.3-4.5-11.4-4.8-1.3-.4-10.7 3.4-27.1 10.7zM316 194c0 20.5.4 31.8 1.1 33.2.6 1.1 2.9 2.8 5.2 3.8 23.9 10.5 39.9 17.5 42.9 19.1l3.8 1.9v-65.7l-25.2-11.2c-13.9-6.3-25.9-11.5-26.5-11.8-1-.4-1.3 6.1-1.3 30.7zm86.3-19.2L376 186.5l.1 17v17l2-5.2c2.8-7.4 9.7-14.6 17.6-18.5 5.9-2.9 7.5-3.2 15.2-3.2 6.6 0 9.7.5 13.4 2.2l4.7 2.1v-17.5c0-9.6-.1-17.4-.2-17.3-.2 0-12.1 5.3-26.5 11.7z"/><path d="M401 202.7c-6.8 2.5-14.5 10.6-16.6 17.8-3.9 13.7 1.9 27 14.6 33.7 6.2 3.2 17.6 3.2 23.6.1 6.3-3.4 9.7-6.6 12.9-12.5 2.5-4.5 2.9-6.4 2.9-12.8.1-6.2-.4-8.4-2.6-12.6-6.7-12.7-21.2-18.4-34.8-13.7zm25.8 19.2c.3 1.9-1.5 4.3-8.4 11.2-5.6 5.7-9.6 8.9-11 8.9-2.1 0-11.4-8.9-11.4-10.9 0-4.8 4.1-5.4 8.5-1.1l3.1 3 6.9-7c5.5-5.5 7.5-7 9.5-6.8 1.8.2 2.6 1 2.8 2.7zm-50.7 22.8-.1 7.3 2.5-1.2c2.5-1.1 3.2-2.8 1.8-4.2-.5-.4-1.6-2.6-2.5-4.9l-1.7-4.2v7.2z"/></g><path fill="#8F8F8F" d="M415.9 225.7c-1.3 1.6-1.2 1.7.4.4.9-.7 1.7-1.5 1.7-1.7 0-.8-.8-.3-2.1 1.3z"/><path fill="#F8F8F8" d="M429.4 180.5c0 9.9.2 13.8.3 8.7.2-5.1.2-13.2 0-18-.1-4.8-.3-.6-.3 9.3z"/><path fill="#FBFBFB" d="M400.5 237c2.1 2.2 4.1 4 4.4 4 .3 0-1.3-1.8-3.4-4-2.1-2.2-4.1-4-4.4-4-.3 0 1.3 1.8 3.4 4z"/><path fill="#5C5C5C" d="M430.4 181c0 10.2.2 14.3.3 9.2.2-5 .2-13.4 0-18.5-.1-5-.3-.9-.3 9.3z"/><path fill="#A5A5A5" d="M315.4 193.5c0 17 .2 24.2.3 15.8.2-8.3.2-22.3 0-31-.1-8.7-.3-1.9-.3 15.2z"/><path fill="#D1D1D1" d="M369.4 219c0 18.4.2 26 .3 16.7.2-9.2.2-24.2 0-33.5-.1-9.2-.3-1.6-.3 16.8z"/></svg>