<?xml version="1.0" standalone="no"?>
<!DOCTYPE svg PUBLIC "-//W3C//DTD SVG 20010904//EN"
 "http://www.w3.org/TR/2001/REC-SVG-20010904/DTD/svg10.dtd">
<svg version="1.0" xmlns="http://www.w3.org/2000/svg"
 width="752.000000pt" height="395.000000pt" viewBox="0 0 752.000000 395.000000"
 preserveAspectRatio="xMidYMid meet">

<g transform="translate(0.000000,395.000000) scale(0.100000,-0.100000)"
fill="#353535" stroke="none">
<path d="M0 1975 l0 -1975 3760 0 3760 0 0 1975 0 1975 -3760 0 -3760 0 0
-1975z m3840 665 c11 -11 20 -29 20 -39 0 -20 -25 -51 -41 -51 -5 0 -9 -31 -9
-68 l0 -69 58 -14 c31 -7 60 -13 64 -14 4 0 25 28 47 63 43 66 72 79 105 46
24 -24 19 -49 -21 -110 l-36 -55 39 -42 c21 -23 40 -43 41 -45 4 -10 118 67
115 78 -9 37 50 74 84 52 26 -16 75 -115 69 -139 -7 -29 -41 -43 -76 -31 -21
7 -36 3 -81 -23 l-55 -31 13 -37 c7 -20 13 -46 14 -58 0 -21 5 -23 53 -23 61
0 97 -20 97 -55 0 -35 -36 -55 -97 -55 -48 0 -53 -2 -53 -22 -1 -13 -7 -39
-14 -59 l-13 -37 55 -31 c45 -26 60 -30 81 -23 35 12 69 -2 76 -31 6 -24 -43
-123 -69 -139 -34 -22 -93 15 -84 52 3 11 -111 88 -115 78 -1 -2 -20 -22 -41
-45 l-39 -42 36 -55 c40 -61 45 -86 21 -110 -33 -33 -62 -20 -105 47 -22 34
-43 62 -47 62 -4 -1 -33 -7 -64 -14 l-58 -14 0 -69 c0 -37 4 -68 9 -68 16 0
41 -31 41 -51 0 -38 -35 -59 -100 -59 -65 0 -100 21 -100 59 0 20 25 51 41 51
5 0 9 31 9 68 l0 69 -47 11 c-27 6 -55 13 -64 17 -11 4 -26 -11 -53 -55 -42
-68 -74 -84 -106 -55 -28 26 -25 48 17 111 l36 55 -39 42 c-21 23 -40 43 -41
45 -4 10 -118 -67 -115 -78 9 -37 -50 -74 -84 -52 -26 16 -75 115 -69 139 7
29 41 43 76 31 21 -7 36 -3 81 23 l55 31 -13 37 c-7 20 -13 46 -14 59 0 20 -5
22 -53 22 -61 0 -97 20 -97 55 0 35 36 55 97 55 48 0 53 2 53 23 1 12 7 38 14
58 l13 37 -55 31 c-45 26 -60 30 -81 23 -35 -12 -69 2 -76 31 -5 17 4 42 30
85 31 54 40 62 65 62 30 0 64 -35 58 -60 -3 -11 111 -88 115 -78 1 2 20 22 41
45 l39 42 -36 55 c-40 61 -45 86 -21 110 33 33 62 20 105 -46 22 -35 43 -63
47 -63 4 1 33 7 65 14 l57 14 0 69 c0 37 -4 68 -9 68 -16 0 -41 31 -41 51 0
38 35 59 100 59 47 0 64 -4 80 -20z"/>
<path d="M3742 2244 c-15 -10 -22 -25 -22 -49 0 -59 54 -91 99 -58 74 55 -1
160 -77 107z"/>
<path d="M3517 1959 c-11 -6 -25 -26 -33 -45 -12 -29 -12 -39 0 -68 27 -64 97
-76 148 -26 26 27 30 36 25 68 -11 66 -85 103 -140 71z"/>
<path d="M3903 1870 c-68 -27 -48 -130 25 -130 68 0 89 100 27 128 -14 7 -27
12 -28 11 -1 0 -12 -4 -24 -9z"/>
</g>
</svg>
