<?xml version="1.0" standalone="no"?>
<!DOCTYPE svg PUBLIC "-//W3C//DTD SVG 20010904//EN"
 "http://www.w3.org/TR/2001/REC-SVG-20010904/DTD/svg10.dtd">
<svg version="1.0" xmlns="http://www.w3.org/2000/svg"
 width="752.000000pt" height="395.000000pt" viewBox="0 0 752.000000 395.000000"
 preserveAspectRatio="xMidYMid meet">

<g transform="translate(0.000000,395.000000) scale(0.100000,-0.100000)"
fill="#353535" stroke="none">
<path d="M0 1975 l0 -1975 3760 0 3760 0 0 1975 0 1975 -3760 0 -3760 0 0
-1975z m3260 695 l0 -30 -80 0 -79 0 -3 -82 c-3 -81 -4 -83 -28 -83 -25 0 -25
1 -28 100 -3 124 -3 125 125 125 l93 0 0 -30z m1203 17 c15 -10 17 -27 15
-112 -3 -99 -3 -100 -28 -100 -24 0 -25 2 -28 83 l-3 82 -79 0 -80 0 0 30 0
30 93 0 c59 0 99 -5 110 -13z m-705 -235 l3 -142 -308 2 -308 3 -3 129 c-1 72
0 136 2 143 4 11 65 13 308 11 l303 -3 3 -143z m622 73 c0 -25 0 -25 -95 -25
-95 0 -95 0 -95 25 0 25 0 25 95 25 95 0 95 0 95 -25z m-240 -95 l0 -30 -78 0
c-78 0 -78 0 -117 -40 -43 -44 -56 -48 -76 -24 -11 14 -6 23 43 70 l56 54 86
0 86 0 0 -30z m100 0 c0 -25 -4 -30 -25 -30 -21 0 -25 5 -25 30 0 25 4 30 25
30 21 0 25 -5 25 -30z m140 0 c0 -29 -1 -30 -50 -30 -46 0 -50 2 -50 23 0 33
7 37 57 37 41 0 43 -1 43 -30z m0 -95 c0 -25 0 -25 -95 -25 -95 0 -95 0 -95
25 0 25 0 25 95 25 95 0 95 0 95 -25z m-395 -94 c102 -46 155 -130 155 -247 0
-63 -3 -76 -26 -103 l-26 -31 26 -21 c23 -18 26 -28 26 -79 0 -51 -3 -61 -26
-79 -15 -12 -35 -21 -45 -21 -14 0 -22 -12 -30 -45 -32 -126 -147 -214 -279
-214 -132 0 -247 88 -279 214 -8 33 -16 45 -30 45 -10 0 -30 9 -45 21 -23 18
-26 28 -26 79 0 51 3 61 26 79 l26 21 -26 31 c-23 27 -26 39 -26 102 1 115 47
194 142 241 50 25 58 26 237 26 158 0 192 -3 226 -19z m-818 -73 c58 -54 -4
-148 -78 -118 -25 11 -49 46 -49 74 0 7 9 25 21 40 26 33 73 35 106 4z m1213
-3 c0 -20 -5 -25 -25 -25 -20 0 -25 5 -25 25 0 20 5 25 25 25 20 0 25 -5 25
-25z m100 0 c0 -21 -5 -25 -30 -25 -25 0 -30 4 -30 25 0 21 5 25 30 25 25 0
30 -4 30 -25z m-2 -92 c-3 -27 -5 -28 -75 -31 l-73 -3 0 31 0 30 76 0 75 0 -3
-27z m-1378 -98 c0 -21 -5 -25 -30 -25 -25 0 -30 4 -30 25 0 21 5 25 30 25 25
0 30 -4 30 -25z m90 0 c0 -20 -5 -25 -25 -25 -20 0 -25 5 -25 25 0 20 5 25 25
25 20 0 25 -5 25 -25z m1190 0 c0 -20 -5 -25 -25 -25 -20 0 -25 5 -25 25 0 20
5 25 25 25 20 0 25 -5 25 -25z m100 0 c0 -21 -5 -25 -30 -25 -25 0 -30 4 -30
25 0 21 5 25 30 25 25 0 30 -4 30 -25z m-1290 -95 l0 -30 -75 0 c-72 0 -75 1
-75 23 0 34 6 37 82 37 l68 0 0 -30z m1243 19 c24 -11 47 -47 47 -73 0 -29
-41 -66 -73 -66 -79 0 -106 111 -34 140 30 12 32 12 60 -1z m-1333 -114 c0
-21 -5 -25 -30 -25 -25 0 -30 4 -30 25 0 21 5 25 30 25 25 0 30 -4 30 -25z
m90 0 c0 -20 -5 -25 -25 -25 -20 0 -25 5 -25 25 0 20 5 25 25 25 20 0 25 -5
25 -25z m-5 -187 c27 -47 142 -164 191 -195 37 -24 41 -30 32 -48 -6 -11 -12
-22 -14 -24 -2 -2 -32 17 -67 42 -67 48 -132 114 -182 186 -28 42 -29 44 -10
57 26 19 28 18 50 -18z m1200 18 c19 -13 18 -15 -10 -57 -49 -70 -119 -142
-183 -187 l-61 -42 -15 22 c-15 21 -13 23 32 54 55 37 160 144 187 192 22 36
24 37 50 18z m-1287 -223 l3 -83 79 0 80 0 0 -30 0 -30 -91 0 c-129 0 -129 0
-129 119 0 54 3 101 7 105 4 4 16 6 28 4 18 -3 20 -11 23 -85z m1380 -18 c3
-124 3 -125 -125 -125 l-93 0 0 30 0 30 80 0 80 0 0 78 c0 85 4 94 35 90 18
-3 20 -11 23 -103z m-1258 49 c11 -13 9 -19 -13 -41 -22 -22 -28 -24 -41 -13
-20 16 -20 29 1 52 20 22 36 23 53 2z m1132 -1 c22 -20 23 -36 2 -53 -13 -11
-19 -9 -41 13 -22 22 -24 28 -13 41 16 20 29 20 52 -1z"/>
<path d="M3190 2455 l0 -95 260 0 260 0 0 95 0 95 -260 0 -260 0 0 -95z m500
45 c0 -25 -4 -30 -25 -30 -21 0 -25 5 -25 30 0 25 4 30 25 30 21 0 25 -5 25
-30z"/>
<path d="M3555 2191 c-78 -36 -125 -111 -125 -200 0 -34 6 -56 20 -72 l19 -24
1 31 c0 17 8 38 18 46 29 25 163 98 180 98 26 0 356 -91 370 -102 6 -6 12 -25
12 -42 l1 -31 19 24 c40 47 20 163 -38 225 -53 57 -90 66 -272 66 -140 0 -171
-3 -205 -19z"/>
<path d="M3595 1976 l-70 -42 1 -150 c0 -161 7 -191 59 -252 44 -52 99 -76
175 -76 76 0 131 24 175 76 50 58 58 92 63 250 l4 147 -43 11 c-24 7 -93 25
-154 41 -60 16 -117 31 -125 34 -8 2 -46 -16 -85 -39z"/>
<path d="M3430 1760 c0 -33 3 -40 20 -40 17 0 20 7 20 40 0 33 -3 40 -20 40
-17 0 -20 -7 -20 -40z"/>
<path d="M4050 1760 c0 -33 3 -40 20 -40 17 0 20 7 20 40 0 33 -3 40 -20 40
-17 0 -20 -7 -20 -40z"/>
<path d="M3100 2120 c0 -15 5 -20 18 -18 9 2 17 10 17 18 0 8 -8 16 -17 18
-13 2 -18 -3 -18 -18z"/>
<path d="M4385 1840 c-8 -14 3 -30 21 -30 8 0 14 9 14 20 0 21 -24 28 -35 10z"/>
</g>
</svg>
