<svg xmlns="http://www.w3.org/2000/svg" version="1.0" viewBox="0 0 752 395"><path fill="#373737" d="M0 197.5V395h752V0H0v197.5zM334 136v3h-19v19h-6v-11.8c0-6.5.3-12.2.7-12.5.3-.4 6-.7 12.5-.7H334v3zm108.8 9.7.3 12.3H437v-19h-19v-6.1l12.3.3 12.2.3.3 12.2zM324 146c0 2.7-.3 3-3 3s-3-.3-3-3 .3-3 3-3 3 .3 3 3zm110 0c0 2.7-.3 3-3 3s-3-.3-3-3 .3-3 3-3 3 .3 3 3zm-53.7 3.6c8.9 2 21.1 6.8 25.6 10.2 4.4 3.2 6.1 7.7 6.1 15.7 0 8-1.7 8.6-5.2 1.7-1.6-3.1-3.8-5.5-6.4-6.9-3.7-2.1-5-2.3-24.4-2.3s-20.7.2-24.4 2.3c-2.6 1.4-4.8 3.8-6.4 6.9-3.9 7.6-5.2 6.4-5.2-4.5 0-10 .9-12 5.5-12.9 1.6-.3 2-1.1 2-4 0-2 .3-3.9.7-4.3 3.5-3.5 20.3-4.5 32.1-1.9zm17.1 22.8c1.8.7 4.2 2.6 5.4 4.1 2.1 2.6 2.2 3.8 2.2 19.4 0 15.4-.2 17-2.4 21.7-5.2 11.1-14.2 16.8-26.6 16.8-12.4 0-21.4-5.7-26.6-16.8-2.2-4.7-2.4-6.3-2.4-21.7 0-15.5.1-16.8 2.2-19.4 3.8-4.8 6.7-5.4 26.6-5.5 13.3 0 19.2.4 21.6 1.4zM343 192.5c0 6.2-.1 6.5-2.4 6.5-2.8 0-3.6-1.6-3.6-7.4 0-4.9.5-5.6 3.7-5.6 2.2 0 2.3.4 2.3 6.5zm71.8-2.1c.5 6.1-.4 8.6-3.3 8.6-2.4 0-2.5-.2-2.5-6.6v-6.5l2.8.3c2.4.3 2.7.8 3 4.2zM315 231.5v9.5h19v6.1l-12.2-.3-12.3-.3-.3-12.3-.3-12.2h6.1v9.5zm127.8 2.7-.3 12.3-12.2.3-12.3.3V241h19v-19h6.1l-.3 12.2zM324 234c0 2.7-.3 3-3 3s-3-.3-3-3 .3-3 3-3 3 .3 3 3zm110 0c0 2.7-.3 3-3 3s-3-.3-3-3 .3-3 3-3 3 .3 3 3zm-60.2 3.7c3.7.3 8.1 0 10.8-.7 2.4-.7 4.6-1.1 4.9-.9.2.3.7 3.9 1.1 8 .6 7.5.6 7.7-2.4 11-2.9 3.2-3.4 3.4-10.9 3.7-8.6.3-11.4-.6-14.6-5-1.7-2.3-1.9-3.5-1.2-10.3l.7-7.7 2.6.7c1.5.3 5.5.9 9 1.2zM358 250c0 3.4 2.9 8 6.3 10 4.1 2.6 18.2 2.8 22.8.5 3.5-1.8 6.9-7 6.9-10.4 0-2.3.2-2.3 8.3-2 6.9.3 9 .8 12 2.9 5 3.3 7.7 9.1 7.7 16.3v5.7h-92v-5.5c0-13 6.8-19.4 20.8-19.5 6.6 0 7.2.2 7.2 2z"/><path fill="#858585" d="M316.8 133.7c2.8.2 7.6.2 10.5 0 2.8-.2.5-.3-5.3-.3s-8.1.1-5.2.3zm108 0c2.8.2 7.6.2 10.5 0 2.8-.2.5-.3-5.3-.3s-8.1.1-5.2.3z"/><g fill="#FFF" stroke-width="0"><path d="M310.7 134.7c-.4.3-.7 5.5-.7 11.5 0 10.1.1 10.8 2 10.8s2-.7 2-9.5V138h9.5c8.8 0 9.5-.1 9.5-2s-.7-2-10.8-2c-6 0-11.2.3-11.5.7zM419 136c0 1.9.6 2 9.5 2h9.5v9.5c0 8.9.1 9.5 2 9.5 2 0 2.1-.5 1.8-11.3l-.3-11.2-11.2-.3c-10.8-.3-11.3-.2-11.3 1.8z"/><path d="M319 146c0 1.3.7 2 2 2s2-.7 2-2-.7-2-2-2-2 .7-2 2zm110 0c0 1.3.7 2 2 2s2-.7 2-2-.7-2-2-2-2 .7-2 2zm-73.2 3.9c-4.9 1-6.9 2.8-6.6 6 .2 3.4-.8 5.1-3.2 5.1-3.6 0-5.1 4.1-4.8 12.6l.3 7.9 2.1-4.6c1.2-2.5 3.7-5.7 5.5-7 3.4-2.4 3.7-2.4 26.9-2.4s23.5 0 26.9 2.4c1.8 1.3 4.3 4.5 5.5 7l2.1 4.6.3-5.8c.5-9.1-2.3-13.2-12.3-18.2-4.5-2.2-11.1-4.8-14.7-5.8-7.7-2-22.6-3-28-1.8z"/><path d="M353.2 174.6c-4.4 3-5.2 6.4-5.2 20.7 0 16.8 1.4 22.1 7.6 28.7 7.7 8.3 18.5 11.2 29.4 7.9 6.8-2 15.4-10.8 17.4-17.8 2.2-7.4 2.2-30.9.1-35.1-3-5.8-4-6-26.5-6-17 0-20.9.3-22.8 1.6zm-14.6 14c-1.5 4 0 9.4 2.6 9.4.4 0 .8-2.5.8-5.5 0-4-.4-5.5-1.4-5.5-.8 0-1.7.7-2 1.6zm71.4 3.9c0 5.6.6 6.5 2.8 4.3 2.3-2.3 1.2-9.8-1.4-9.8-1 0-1.4 1.5-1.4 5.5zm-100 41.4c0 9 .3 11 1.6 11.5.9.3 6 .6 11.5.6 9.2 0 9.9-.1 9.9-2s-.7-2-9.5-2H314v-9.5c0-8.8-.1-9.5-2-9.5s-2 .7-2 10.9zm128-1.4v9.5h-9.5c-8.8 0-9.5.1-9.5 2s.7 2 9.9 2c5.5 0 10.6-.3 11.5-.6 1.3-.5 1.6-2.5 1.6-11.5 0-10.2-.1-10.9-2-10.9s-2 .7-2 9.5z"/><path d="M319 234c0 1.3.7 2 2 2s2-.7 2-2-.7-2-2-2-2 .7-2 2zm110 0c0 1.3.7 2 2 2s2-.7 2-2-.7-2-2-2-2 .7-2 2zm-66.2 9.2c-.2 8 0 9.1 2.8 11.8 2.2 2.2 3.2 2.5 10.4 2.5s8.2-.3 10.4-2.5c2.8-2.7 3-3.8 2.8-11.8l-.2-5.4-4.2.7c-2.3.4-6.2.7-8.8.7-2.6 0-6.5-.3-8.8-.7l-4.2-.7-.2 5.4z"/><path d="M341.5 250.4c-6.6 3-10.4 9.7-10.5 18.3v3.3h90v-3.3c-.1-12.5-7.2-19.7-19.4-19.7-5.2 0-5.6.2-6.2 2.7-1 4-4.1 8.1-7.4 9.8-2 1-5.9 1.5-12 1.5s-10-.5-12-1.5c-3.3-1.7-6.4-5.8-7.4-9.8-.6-2.6-.9-2.7-6.4-2.7-3.1.1-7 .7-8.7 1.4z"/></g><path fill="#646464" d="M333.2 136c0 1.4.2 1.9.5 1.2.2-.6.2-1.8 0-2.5-.3-.6-.5-.1-.5 1.3zm85 0c0 1.4.2 1.9.5 1.2.2-.6.2-1.8 0-2.5-.3-.6-.5-.1-.5 1.3zm-85 108c0 1.4.2 1.9.5 1.2.2-.6.2-1.8 0-2.5-.3-.6-.5-.1-.5 1.3zm85 0c0 1.4.2 1.9.5 1.2.2-.6.2-1.8 0-2.5-.3-.6-.5-.1-.5 1.3z"/><path fill="#CBCBCB" d="M347.4 195c0 6.3.1 8.9.3 5.7.2-3.1.2-8.3 0-11.5-.2-3.1-.3-.5-.3 5.8zm57-.5c0 6 .1 8.4.3 5.2.2-3.2.2-8.1 0-11-.2-2.9-.3-.3-.3 5.8z"/><path fill="#DDD" d="M309.4 146.5c0 6 .1 8.4.3 5.2.2-3.2.2-8.1 0-11-.2-2.9-.3-.3-.3 5.8zm133 0c0 6 .1 8.4.3 5.2.2-3.2.2-8.1 0-11-.2-2.9-.3-.3-.3 5.8zm-133 87c0 6 .1 8.4.3 5.2.2-3.2.2-8.1 0-11-.2-2.9-.3-.3-.3 5.8zm133 0c0 6 .1 8.4.3 5.2.2-3.2.2-8.1 0-11-.2-2.9-.3-.3-.3 5.8z"/><path fill="#C9C9C9" d="M319.8 236.7c.6.2 1.8.2 2.5 0 .6-.3.1-.5-1.3-.5-1.4 0-1.9.2-1.2.5zm110 0c.6.2 1.8.2 2.5 0 .6-.3.1-.5-1.3-.5-1.4 0-1.9.2-1.2.5z"/><path fill="#C6C6C6" d="M319.3 138.7c2.6.2 6.7.2 9 0s.2-.3-4.8-.3c-4.9 0-6.8.1-4.2.3zm105 0c2.6.2 6.7.2 9 0s.2-.3-4.8-.3c-4.9 0-6.8.1-4.2.3z"/><path fill="#505050" d="M314.4 148c0 5.2.1 7.4.3 4.7.2-2.6.2-6.8 0-9.5-.2-2.6-.3-.4-.3 4.8zm123 0c0 5.2.1 7.4.3 4.7.2-2.6.2-6.8 0-9.5-.2-2.6-.3-.4-.3 4.8zm-123 84c0 5.2.1 7.4.3 4.7.2-2.6.2-6.8 0-9.5-.2-2.6-.3-.4-.3 4.8zm123 0c0 5.2.1 7.4.3 4.7.2-2.6.2-6.8 0-9.5-.2-2.6-.3-.4-.3 4.8z"/><path fill="#6C6C6C" d="M337.3 192.5c0 2.2.2 3 .4 1.7.2-1.2.2-3 0-4-.3-.9-.5.1-.4 2.3zm77 0c0 2.2.2 3 .4 1.7.2-1.2.2-3 0-4-.3-.9-.5.1-.4 2.3z"/><path fill="#D4D4D4" d="M319.8 143.7c.6.2 1.8.2 2.5 0 .6-.3.1-.5-1.3-.5-1.4 0-1.9.2-1.2.5zm110 0c.6.2 1.8.2 2.5 0 .6-.3.1-.5-1.3-.5-1.4 0-1.9.2-1.2.5z"/><path fill="#7E7E7E" d="M318.2 146c0 1.4.2 1.9.5 1.2.2-.6.2-1.8 0-2.5-.3-.6-.5-.1-.5 1.3zm115 0c0 1.4.2 1.9.5 1.2.2-.6.2-1.8 0-2.5-.3-.6-.5-.1-.5 1.3zm-115 88c0 1.4.2 1.9.5 1.2.2-.6.2-1.8 0-2.5-.3-.6-.5-.1-.5 1.3zm115 0c0 1.4.2 1.9.5 1.2.2-.6.2-1.8 0-2.5-.3-.6-.5-.1-.5 1.3z"/><path fill="#C8C8C8" d="M323.1 145.6c0 1.1.3 1.4.6.6.3-.7.2-1.6-.1-1.9-.3-.4-.6.2-.5 1.3zm105 0c0 1.1.3 1.4.6.6.3-.7.2-1.6-.1-1.9-.3-.4-.6.2-.5 1.3zM323.2 234c0 1.4.2 1.9.5 1.2.2-.6.2-1.8 0-2.5-.3-.6-.5-.1-.5 1.3zm105 0c0 1.4.2 1.9.5 1.2.2-.6.2-1.8 0-2.5-.3-.6-.5-.1-.5 1.3z"/><path fill="#6B6B6B" d="M319.8 148.7c.6.2 1.8.2 2.5 0 .6-.3.1-.5-1.3-.5-1.4 0-1.9.2-1.2.5zm110 0c.6.2 1.8.2 2.5 0 .6-.3.1-.5-1.3-.5-1.4 0-1.9.2-1.2.5zm-56.5 114c1.5.2 3.9.2 5.5 0 1.5-.2.2-.4-2.8-.4s-4.3.2-2.7.4z"/><path fill="#3D3D3D" d="M367.3 171.7c4.8.2 12.6.2 17.5 0 4.8-.1.8-.3-8.8-.3-9.6 0-13.6.2-8.7.3z"/><path fill="#B2B2B2" d="M353.3 272.7c12.5.2 32.9.2 45.5 0 12.5-.1 2.2-.2-22.8-.2s-35.3.1-22.7.2z"/><path fill="#BFBFBF" d="M363.8 148.7c.7.3 1.6.2 1.9-.1.4-.3-.2-.6-1.3-.5-1.1 0-1.4.3-.6.6z"/><path fill="#D7D7D7" d="M310.8 157.7c.6.2 1.8.2 2.5 0 .6-.3.1-.5-1.3-.5-1.4 0-1.9.2-1.2.5zm128 0c.6.2 1.8.2 2.5 0 .6-.3.1-.5-1.3-.5-1.4 0-1.9.2-1.2.5z"/><path fill="#FDFDFD" d="M355 224.4c0 .2.8 1 1.8 1.7 1.5 1.3 1.6 1.2.3-.4s-2.1-2.1-2.1-1.3zm39.9 1.3c-1.3 1.6-1.2 1.7.4.4 1.6-1.3 2.1-2.1 1.3-2.1-.2 0-1 .8-1.7 1.7z"/><path fill="#FAFAFA" d="M367.3 172.7c4.8.2 12.6.2 17.5 0 4.8-.1.8-.3-8.8-.3-9.6 0-13.6.2-8.7.3z"/><path fill="#616161" d="M373.3 258.7c1.5.2 3.9.2 5.5 0 1.5-.2.2-.4-2.8-.4s-4.3.2-2.7.4z"/><path fill="#818181" d="M319.8 231.7c.6.2 1.8.2 2.5 0 .6-.3.1-.5-1.3-.5-1.4 0-1.9.2-1.2.5zm110 0c.6.2 1.8.2 2.5 0 .6-.3.1-.5-1.3-.5-1.4 0-1.9.2-1.2.5z"/><path fill="#949494" d="M330.3 268.5c0 2.2.2 3 .4 1.7.2-1.2.2-3 0-4-.3-.9-.5.1-.4 2.3zm90.9.5c0 1.9.2 2.7.5 1.7.2-.9.2-2.5 0-3.5-.3-.9-.5-.1-.5 1.8z"/><path fill="#E0E0E0" d="M340.3 174c0 4.1.2 5.8.4 3.7.2-2 .2-5.4 0-7.5-.2-2-.4-.3-.4 3.8zm71 3c0 2.5.2 3.5.4 2.2.2-1.2.2-3.2 0-4.5-.2-1.2-.4-.2-.4 2.3z"/><path fill="#8E8E8E" d="M367.3 167.7c4.8.2 12.6.2 17.5 0 4.8-.1.8-.3-8.8-.3-9.6 0-13.6.2-8.7.3z"/><path fill="#707070" d="M317.3 246.7c3.2.2 8.1.2 11 0 2.9-.2.3-.3-5.8-.3-6 0-8.4.1-5.2.3zm107 0c3.2.2 8.1.2 11 0 2.9-.2.3-.3-5.8-.3-6 0-8.4.1-5.2.3z"/><path fill="#E3E3E3" d="M310.8 222.7c.6.2 1.8.2 2.5 0 .6-.3.1-.5-1.3-.5-1.4 0-1.9.2-1.2.5zm128 0c.6.2 1.8.2 2.5 0 .6-.3.1-.5-1.3-.5-1.4 0-1.9.2-1.2.5z"/><path fill="#D1D1D1" d="M342.3 192.5c0 3.3.2 4.5.4 2.7.2-1.8.2-4.5 0-6s-.4 0-.4 3.3zm67 0c0 3.3.2 4.5.4 2.7.2-1.8.2-4.5 0-6s-.4 0-.4 3.3z"/><path fill="#D2D2D2" d="M319.3 241.7c2.6.2 6.8.2 9.5 0 2.6-.2.4-.3-4.8-.3s-7.4.1-4.7.3zm104 0c2.6.2 6.8.2 9.5 0 2.6-.2.4-.3-4.8-.3s-7.4.1-4.7.3z"/><path fill="#B7B7B7" d="M349.8 248.7c1.2.2 3.2.2 4.5 0 1.2-.2.2-.4-2.3-.4s-3.5.2-2.2.4zm48 0c1.2.2 3.2.2 4.5 0 1.2-.2.2-.4-2.3-.4s-3.5.2-2.2.4z"/></svg>