<?xml version="1.0" standalone="no"?>
<!DOCTYPE svg PUBLIC "-//W3C//DTD SVG 20010904//EN"
 "http://www.w3.org/TR/2001/REC-SVG-20010904/DTD/svg10.dtd">
<svg version="1.0" xmlns="http://www.w3.org/2000/svg"
 width="752.000000pt" height="395.000000pt" viewBox="0 0 752.000000 395.000000"
 preserveAspectRatio="xMidYMid meet">

<g transform="translate(0.000000,395.000000) scale(0.100000,-0.100000)"
fill="#353535" stroke="none">
<path d="M0 1975 l0 -1975 3760 0 3760 0 0 1975 0 1975 -3760 0 -3760 0 0
-1975z m4374 727 c15 -17 16 -50 14 -313 -3 -286 -4 -294 -23 -294 -19 0 -20
8 -23 288 l-2 287 -580 0 -580 0 -2 -287 c-3 -280 -4 -288 -23 -288 -19 0 -20
8 -23 294 -2 263 -1 296 14 313 16 17 46 18 614 18 568 0 598 -1 614 -18z
m-885 -186 c36 -37 37 -113 2 -150 -30 -32 -81 -43 -122 -25 -36 14 -69 62
-69 99 0 33 34 88 63 100 37 16 97 4 126 -24z m693 -93 c60 -59 108 -114 108
-121 0 -7 -7 -15 -16 -19 -11 -4 -47 25 -120 98 l-104 103 -129 -128 c-87 -86
-134 -126 -143 -120 -7 4 -32 22 -55 41 -23 18 -47 33 -55 33 -7 0 -63 -49
-123 -110 -60 -60 -116 -110 -123 -110 -7 0 -15 7 -19 16 -4 11 29 51 113 135
136 136 149 142 223 88 l42 -32 118 117 c96 94 123 116 147 116 23 0 49 -20
136 -107z m328 -403 c17 -17 20 -33 20 -97 0 -65 -3 -80 -22 -100 -24 -25 -63
-31 -71 -10 -6 17 3 32 26 40 14 5 17 19 17 72 l0 65 -720 0 -720 0 0 -65 c0
-53 3 -67 18 -72 22 -8 31 -23 25 -40 -8 -20 -44 -16 -70 9 -20 19 -23 31 -23
100 0 131 -83 118 770 118 717 0 730 0 750 -20z m-80 -85 c15 -18 5 -35 -21
-35 -18 0 -19 -10 -19 -322 0 -285 -2 -323 -17 -340 -15 -17 -47 -18 -611 -18
-540 0 -597 2 -614 17 -17 15 -18 39 -18 340 0 313 -1 323 -19 323 -26 0 -36
17 -21 35 11 13 107 15 670 15 563 0 659 -2 670 -15z"/>
<path d="M3370 2480 c-11 -11 -20 -29 -20 -40 0 -11 9 -29 20 -40 11 -11 29
-20 40 -20 11 0 29 9 40 20 11 11 20 29 20 40 0 11 -9 29 -20 40 -11 11 -29
20 -40 20 -11 0 -29 -9 -40 -20z"/>
<path d="M3180 1585 l0 -315 580 0 580 0 0 315 0 315 -580 0 -580 0 0 -315z
m1035 240 c0 -20 -8 -20 -449 -23 -272 -1 -454 2 -459 7 -5 5 -7 17 -4 25 6
15 55 16 459 14 445 -3 453 -3 453 -23z m0 -120 c0 -20 -8 -20 -449 -23 -272
-1 -454 2 -459 7 -5 5 -7 17 -4 25 6 15 55 16 459 14 445 -3 453 -3 453 -23z
m0 -120 c0 -20 -8 -20 -449 -23 -272 -1 -454 2 -459 7 -5 5 -7 17 -4 25 6 15
55 16 459 14 445 -3 453 -3 453 -23z m0 -120 c0 -20 -8 -20 -449 -23 -272 -1
-454 2 -459 7 -5 5 -7 17 -4 25 6 15 55 16 459 14 445 -3 453 -3 453 -23z"/>
</g>
</svg>
