<svg xmlns="http://www.w3.org/2000/svg" version="1.0" viewBox="0 0 752 395"><g fill="#373737" stroke-width="0"><path d="M0 197.5V395h752V0H0v197.5zm390-60.3c0 15.4.2 17.7 2 20.5 3.8 6.3 5.5 6.8 25.2 7.1l17.9.4-.3 5.6-.3 5.7h-117v-48.4l3-3.1c1.7-1.8 3.9-3.6 5-4 1.1-.5 16.1-.9 33.3-.9l31.2-.1v17.2zm25.7 2c9 9 16.3 16.6 16.3 17 0 1.4-31.5.9-32.8-.4-1.3-1.3-1.8-32.8-.5-32.8.4 0 8.1 7.3 17 16.2zm23.2 46.3c4.8 2.4 5.2 5 4.9 30.9l-.3 23.8-2.8 2.4-2.8 2.4H313.8l-2.9-2.9-2.9-2.9v-49.4l2.9-2.9 2.9-2.9H375c51.5 0 61.5.2 63.9 1.5zM435 258c0 5.7-1.5 9.3-5.5 13l-2.7 2.5-50 .3c-48.8.2-50.1.2-53.3-1.8-4.2-2.6-6.5-7.5-6.5-13.9V253h118v5z"/><path d="M337.6 141.2c-1.4 2-1.4 2.4.1 4 1.4 1.6 3.6 1.8 20.4 1.8 15.7 0 19-.3 20.3-1.6.9-.8 1.6-1.9 1.6-2.4s-.7-1.6-1.6-2.4c-1.3-1.3-4.6-1.6-20.4-1.6-18.3 0-18.9.1-20.4 2.2zm0 17.7c-1.7 1.8-1.7 2 .3 4s3.2 2.1 19.9 2.1c14.4 0 18.2-.3 20-1.6 2.6-1.8 2.7-2.7.6-4.8-1.3-1.3-4.6-1.6-20.3-1.6-17.3 0-18.9.2-20.5 1.9zm2 39.9c-16 5.5-15.1 27.4 1.4 32.3 7.2 2.2 15.2-1.7 19-9.2 2.5-4.9 2.5-9.9 0-14.9-2.7-5.2-6.1-7.6-14-9.5-.8-.2-3.7.4-6.4 1.3zm12 5.1c7.1 4.3 8 13.7 1.9 19.8-2.9 2.9-3.9 3.3-8.5 3.3s-5.6-.4-8.5-3.3c-4.3-4.3-5.2-7.9-3.4-13.1 2.6-7.6 11.7-10.9 18.5-6.7zm29.8-5.7c-8 1.7-14.5 11.2-13 19.2 1.4 7.1 7.2 12.9 14.4 14.2 6.4 1.2 16.5-4.7 13.4-7.8-.7-.7-2-.4-4 1.1-4.5 3.1-10.9 2.9-15.1-.7-2.8-2.3-3.4-3.6-3.8-7.8-1-9.5 4.7-15.3 13.6-14 7.7 1.2 8.4 1.1 8.8-.1 1-2.7-8.2-5.3-14.3-4.1zm23.8-.4c-.9.7-1.2 4.8-1 17.3.3 13.8.5 16.4 1.8 16.4 1.1 0 1.6-1.5 1.8-6.3.2-3.4.7-6.2 1.1-6.2.5 0 3.4 2.9 6.6 6.5 5.9 6.7 7.2 7.5 8.1 5 .4-.9-1.2-3.6-4-6.7-5-5.7-5.5-6.8-3-6.8.8 0 2.9-1.3 4.5-2.9 5.4-5.5 2.9-13.9-4.9-16.1-4.4-1.2-9.2-1.3-11-.2zM418 204c1.1 1.1 2 2.7 2 3.5 0 2.9-3.8 5.5-8 5.5h-4v-11h4c2.7 0 4.7.7 6 2z"/></g><path fill="#434343" d="M412.5 137c7.7 7.7 14.2 14 14.5 14 .2 0-5.8-6.3-13.5-14s-14.2-14-14.5-14c-.2 0 5.8 6.3 13.5 14zm17 17c1 1.1 2 2 2.3 2 .3 0-.3-.9-1.3-2s-2-2-2.3-2c-.3 0 .3.9 1.3 2z"/><path fill="#6C6C6C" d="M443.4 214.5c0 11.5.2 16.1.3 10.2.2-5.9.2-15.4 0-21-.1-5.6-.3-.8-.3 10.8z"/><path fill="#8E8E8E" d="M308.4 214.5c0 11.5.2 16.1.3 10.2.2-5.9.2-15.4 0-21-.1-5.6-.3-.8-.3 10.8zm101.9-11.8c.9.2 2.3.2 3 0 .6-.3-.1-.5-1.8-.5-1.6 0-2.2.2-1.2.5zm-2 21.8c0 2.7.2 3.8.4 2.2.2-1.5.2-3.7 0-5-.2-1.2-.4 0-.4 2.8z"/><path fill="#A2A2A2" d="M345.3 120.7c8.1.2 21.3.2 29.5 0 8.1-.1 1.4-.3-14.8-.3s-22.9.2-14.7.3z"/><path fill="#3A3A3A" d="M346.7 176.7c16.1.2 42.5.2 58.5 0 16.1-.1 3-.2-29.2-.2s-45.3.1-29.3.2zm56.7 38.3c0 8.5.2 12 .3 7.7.2-4.2.2-11.2 0-15.5-.1-4.2-.3-.7-.3 7.8z"/><path fill="#BDBDBD" d="M346.8 253.7c16.1.2 42.2.2 58 0 15.8-.1 2.6-.2-29.3-.2-31.9 0-44.8.1-28.7.2z"/><g fill="#FFF" stroke-width="0"><path d="M327.6 122c-4 1.3-7.4 4.7-8.6 8.9-.5 2-1 12.7-1 23.8V175h115v-9h-16.5c-26.8 0-27.5-.7-27.5-27.3V121l-29.2.1c-16.1 0-30.6.5-32.2.9zm52.2 17.2c.7.7 1.2 2.4 1.2 3.8 0 4.8-1 5-23 5-21.7 0-23-.3-23-4.6 0-5 1.6-5.4 23.4-5.4 14.4 0 20.5.3 21.4 1.2zm0 18c1.9 1.9 1.5 6.6-.7 7.8-1.2.6-9.9 1-21.5 1-16.4 0-19.7-.3-21-1.6-1.9-1.8-2.1-5.5-.4-7.2 1.7-1.7 41.9-1.7 43.6 0z"/><path d="M399 139.7c0 13.2.1 14.3 2 15.3 1.2.6 7.2.9 15 .8l13-.3-15-15-15-15v14.2zm-84.7 46.9c-4.6 2.3-5.3 5.8-5.3 28.7 0 21.9.8 25.9 5.6 27.7 1.7.7 23.9.9 63.1.8l60.5-.3 1.9-2.4c1.8-2.1 1.9-4.2 1.9-26.5v-24.3l-2.6-2.4-2.6-2.4-59.6-.2c-53.2-.3-60.1-.1-62.9 1.3zm37.5 11c5.4 2.2 9.1 6.2 10.7 11.7 2.1 7 .8 12.5-4.4 18-3.8 4.2-7.4 5.7-13.4 5.7-12.2 0-21.4-12.2-17.7-23.4 3.5-10.6 15-16.1 24.8-12zm42.6.7c2.9 1.9 3.6 6.4 1.2 7.3-.8.3-3.3-.1-5.7-.9-2.9-1-5.2-1.2-7.2-.6-9.6 2.7-11.5 15-3.3 20 4 2.5 7.7 2.4 11-.2 3.7-2.9 7.1-2.2 7.1 1.6 0 6.2-11.4 9.7-19.8 6.1-3.9-1.6-8.2-6.1-9.6-9.9-2.5-6.6-.4-16.4 4.6-20.9 5.3-4.9 16.2-6.1 21.7-2.5zm24.5-1c3.1 1.6 5.9 5.4 6.7 9.2.6 3.4-2.7 9.2-6.4 11.1-2.2 1.1-2.2 1.1-.3 2.8 1.1 1 3.2 3.5 4.7 5.7 2.2 3.2 2.4 4.1 1.4 5.4-2.2 2.7-4.7 1.6-10.3-4.5l-5.6-6-.3 5.7c-.3 5.2-.5 5.8-2.7 6.1-1.3.2-2.8-.2-3.2-1-1.4-2.1-1.1-33.2.3-34.6 1.6-1.6 12.6-1.5 15.7.1z"/><path d="M343 203.7c-6.1 2-9 5.7-9 11.5 0 4 2.1 7.3 6 9.3 3.7 1.9 6.3 1.9 10 0 5.8-3 7.7-11 3.8-16-1.7-2.2-7.7-5.8-9-5.4-.2 0-1 .3-1.8.6zm66 3.7c0 3.9.3 4.6 1.9 4.6 8.4 0 9.9-7.4 1.8-8.7l-3.7-.6v4.7zm-90.7 51.8c.8 6.1 3 9.6 7.8 12 3.1 1.6 7.6 1.8 49.7 1.8 50.2 0 50.7-.1 55-5.5 1.6-2.1 2.2-4.1 2.2-8.1V254H317.7l.6 5.2z"/></g><path fill="#A4A4A4" d="M389.4 136.5c0 8.2.2 11.5.3 7.2.2-4.3.2-11 0-15-.1-4-.3-.5-.3 7.8z"/><path fill="#C3C3C3" d="M412.5 138c7.7 7.7 14.2 14 14.5 14 .2 0-5.8-6.3-13.5-14s-14.2-14-14.5-14c-.2 0 5.8 6.3 13.5 14zm-65.8 106.7c16.1.2 42.5.2 58.5 0 16.1-.1 3-.2-29.2-.2s-45.3.1-29.3.2z"/><path fill="#D7D7D7" d="M398.4 138.5c0 7.7.2 10.7.3 6.7.2-4 .2-10.3 0-14-.2-3.7-.3-.4-.3 7.3z"/><path fill="#FDFDFD" d="M414 140.5c8.5 8.5 15.7 15.5 16 15.5.3 0-6.5-7-15-15.5S399.3 125 399 125c-.3 0 6.5 7 15 15.5zm19.3 30c0 2.7.2 3.8.4 2.2.2-1.5.2-3.7 0-5-.2-1.2-.4 0-.4 2.8zm-70.2 44.1c0 1.1.3 1.4.6.6.3-.7.2-1.6-.1-1.9-.3-.4-.6.2-.5 1.3zm70.1 42.4c0 1.9.2 2.7.5 1.7.2-.9.2-2.5 0-3.5-.3-.9-.5-.1-.5 1.8z"/><path fill="#E4E4E4" d="M407.8 196.7c1.2.2 3 .2 4 0 .9-.3-.1-.5-2.3-.4-2.2 0-3 .2-1.7.4zm-5.4 17.8c0 8.2.2 11.5.3 7.2.2-4.3.2-11 0-15-.1-4-.3-.5-.3 7.8z"/><path fill="#969696" d="M317.4 154.5c0 11.5.2 16.1.3 10.2.2-5.9.2-15.4 0-21-.1-5.6-.3-.8-.3 10.8zm-.2 102.5c0 1.9.2 2.7.5 1.7.2-.9.2-2.5 0-3.5-.3-.9-.5-.1-.5 1.8z"/><path fill="#C6C6C6" d="M348.8 138.7c5 .2 13.4.2 18.5 0 5-.1.9-.3-9.3-.3-10.2 0-14.3.2-9.2.3z"/><path fill="#BABABA" d="M348.8 147.7c5 .2 13.4.2 18.5 0 5-.1.9-.3-9.3-.3-10.2 0-14.3.2-9.2.3z"/><path fill="#747474" d="M434.3 170.5c0 2.7.2 3.8.4 2.2.2-1.5.2-3.7 0-5-.2-1.2-.4 0-.4 2.8zm-.1 86.5c0 1.9.2 2.7.5 1.7.2-.9.2-2.5 0-3.5-.3-.9-.5-.1-.5 1.8z"/><path fill="#B8B8B8" d="M348.8 156.7c5 .2 13.4.2 18.5 0 5-.1.9-.3-9.3-.3-10.2 0-14.3.2-9.2.3zm60.4 0c3.7.2 10 .2 14 0 4-.1 1-.3-6.7-.3s-11 .1-7.3.3zm-55.9 117c12.5.2 32.9.2 45.5 0 12.5-.1 2.2-.2-22.8-.2s-35.3.1-22.7.2z"/><path fill="#FBFBFB" d="M442.4 214.5c0 12.1.2 16.9.3 10.7.2-6.2.2-16.1 0-22-.1-5.9-.3-.8-.3 11.3z"/><path fill="#F0F0F0" d="M347.2 175.7c15.9.2 41.7.2 57.5 0 15.9-.1 2.9-.2-28.7-.2-31.6 0-44.6.1-28.8.2z"/><path fill="#C8C8C8" d="M348.8 165.7c5 .2 13.4.2 18.5 0 5-.1.9-.3-9.3-.3-10.2 0-14.3.2-9.2.3zm61.5 0c4.2.2 11.2.2 15.5 0 4.2-.1.7-.3-7.8-.3s-12 .2-7.7.3z"/><path fill="#797979" d="M346.7 184.7c16.1.2 42.5.2 58.5 0 16.1-.1 3-.2-29.2-.2s-45.3.1-29.3.2z"/><path fill="#898989" d="M408.1 205.6c0 1.1.3 1.4.6.6.3-.7.2-1.6-.1-1.9-.3-.4-.6.2-.5 1.3z"/><path fill="#979797" d="M409.8 212.7c.6.2 1.8.2 2.5 0 .6-.3.1-.5-1.3-.5-1.4 0-1.9.2-1.2.5z"/></svg>