<?xml version="1.0" standalone="no"?>
<!DOCTYPE svg PUBLIC "-//W3C//DTD SVG 20010904//EN"
 "http://www.w3.org/TR/2001/REC-SVG-20010904/DTD/svg10.dtd">
<svg version="1.0" xmlns="http://www.w3.org/2000/svg"
 width="752.000000pt" height="395.000000pt" viewBox="0 0 752.000000 395.000000"
 preserveAspectRatio="xMidYMid meet">

<g transform="translate(0.000000,395.000000) scale(0.100000,-0.100000)"
fill="#353535" stroke="none">
<path d="M0 1975 l0 -1975 3760 0 3760 0 0 1975 0 1975 -3760 0 -3760 0 0
-1975z m4228 603 c13 -13 18 -418 5 -418 -5 0 -37 5 -72 11 -90 14 -187 -2
-280 -47 -283 -139 -360 -513 -154 -754 l35 -40 -274 0 c-200 0 -277 3 -286
12 -17 17 -17 1219 0 1236 17 17 1009 17 1026 0z m-46 -459 c161 -34 295 -160
338 -318 6 -23 11 -77 11 -119 0 -128 -46 -229 -146 -321 -170 -157 -443 -146
-605 25 -109 115 -148 280 -101 432 65 214 286 346 503 301z m308 -784 c23
-24 23 -25 5 -45 l-18 -20 -29 27 c-26 25 -27 28 -11 45 21 23 25 23 53 -7z
m159 -119 c76 -76 89 -107 61 -141 -27 -33 -62 -18 -142 62 l-78 77 37 38 c20
21 40 38 43 38 3 0 39 -33 79 -74z"/>
<path d="M3318 2501 l-33 -29 0 -129 c0 -121 1 -128 20 -128 18 0 20 8 23 68
l3 68 57 -3 57 -3 5 -65 c4 -49 9 -65 20 -65 12 0 15 22 18 128 l3 128 -30 29
c-41 42 -98 42 -143 1z m110 -34 c6 -6 13 -24 17 -40 l7 -27 -61 0 c-56 0 -61
2 -61 22 0 46 70 79 98 45z"/>
<path d="M3556 2514 c-3 -9 -6 -73 -6 -144 0 -71 3 -135 6 -144 8 -21 123 -22
164 -1 51 27 61 107 16 144 -11 10 -13 18 -6 31 18 34 11 71 -19 101 -26 26
-37 29 -89 29 -45 0 -61 -4 -66 -16z m128 -56 c17 -27 -5 -52 -48 -56 l-36 -3
0 41 0 41 36 -3 c22 -2 42 -10 48 -20z m21 -128 c15 -17 16 -24 7 -45 -10 -22
-18 -25 -62 -25 l-50 0 0 38 c0 48 4 52 50 52 24 0 43 -7 55 -20z"/>
<path d="M3862 2510 c-41 -25 -62 -73 -62 -142 0 -102 59 -161 155 -156 42 3
50 6 50 23 0 17 -8 21 -59 25 -77 7 -96 29 -96 112 0 76 27 108 92 108 51 0
73 12 65 34 -10 24 -103 22 -145 -4z"/>
<path d="M3283 2135 c-3 -9 -1 -21 4 -26 5 -5 93 -8 214 -7 196 3 204 4 204
23 0 19 -8 20 -208 23 -182 2 -208 0 -214 -13z"/>
<path d="M3285 2000 c-4 -6 -1 -17 5 -25 10 -12 41 -15 145 -15 147 0 165 3
165 31 0 18 -10 19 -154 19 -97 0 -157 -4 -161 -10z"/>
<path d="M3290 1865 c-24 -28 0 -35 125 -35 125 0 149 7 125 35 -10 12 -39 15
-125 15 -86 0 -115 -3 -125 -15z"/>
<path d="M3283 1725 c-11 -30 12 -36 123 -33 101 3 109 4 109 23 0 19 -8 20
-113 23 -95 2 -113 0 -119 -13z"/>
<path d="M3285 1590 c-4 -6 -1 -17 5 -25 9 -11 36 -15 109 -15 101 0 128 8
118 34 -5 13 -25 16 -116 16 -66 0 -112 -4 -116 -10z"/>
<path d="M3290 1455 c-24 -28 0 -35 125 -35 125 0 149 7 125 35 -10 12 -39 15
-125 15 -86 0 -115 -3 -125 -15z"/>
<path d="M4000 2055 c-110 -31 -199 -107 -248 -213 -23 -49 -27 -70 -27 -152
0 -69 5 -107 18 -140 104 -253 428 -320 620 -128 70 70 101 143 105 248 6 136
-41 240 -144 319 -89 68 -220 95 -324 66z m186 -50 c146 -43 235 -165 237
-322 0 -61 -4 -81 -32 -137 -61 -125 -172 -191 -311 -184 -124 6 -226 72 -281
183 -20 43 -24 64 -24 145 0 83 4 101 27 145 26 51 94 121 139 146 74 39 164
48 245 24z"/>
<path d="M4017 1946 c-54 -20 -117 -64 -117 -81 0 -27 28 -28 62 -1 18 13 56
30 83 37 28 6 56 13 63 15 8 2 12 12 10 21 -4 23 -51 27 -101 9z"/>
<path d="M4145 1690 l-130 -130 -52 52 c-50 49 -54 51 -70 35 -16 -16 -14 -21
47 -82 35 -36 69 -65 75 -65 6 0 75 65 154 144 102 102 142 149 138 160 -4 9
-12 16 -19 16 -7 0 -72 -58 -143 -130z"/>
</g>
</svg>
