<?xml version="1.0" standalone="no"?>
<!DOCTYPE svg PUBLIC "-//W3C//DTD SVG 20010904//EN"
 "http://www.w3.org/TR/2001/REC-SVG-20010904/DTD/svg10.dtd">
<svg version="1.0" xmlns="http://www.w3.org/2000/svg"
 width="752.000000pt" height="395.000000pt" viewBox="0 0 752.000000 395.000000"
 preserveAspectRatio="xMidYMid meet">

<g transform="translate(0.000000,395.000000) scale(0.100000,-0.100000)"
fill="#353535" stroke="none">
<path d="M0 1975 l0 -1975 3760 0 3760 0 0 1975 0 1975 -3760 0 -3760 0 0
-1975z m3995 731 c119 -40 208 -98 305 -195 97 -98 140 -166 181 -283 58 -169
58 -337 0 -506 -41 -117 -84 -185 -181 -283 -148 -149 -297 -218 -496 -227
-182 -8 -323 29 -464 123 -80 53 -192 170 -239 248 -79 134 -119 324 -100 477
12 101 54 229 100 307 76 128 234 264 371 320 106 43 171 53 313 49 109 -3
143 -7 210 -30z"/>
<path d="M3540 2274 c-135 -16 -225 -38 -247 -60 -29 -29 -29 -58 -2 -85 23
-23 23 -23 174 5 209 40 503 3 677 -85 68 -34 91 -36 118 -9 41 41 18 86 -65
127 -61 31 -190 70 -284 88 -84 15 -306 27 -371 19z"/>
<path d="M3510 2023 c-160 -25 -199 -46 -186 -98 9 -34 35 -38 123 -19 93 19
282 22 368 5 89 -18 183 -50 247 -83 63 -33 102 -33 113 2 12 38 -5 60 -73 94
-88 44 -209 82 -306 95 -74 10 -232 13 -286 4z"/>
<path d="M3565 1794 c-200 -27 -215 -32 -215 -69 0 -38 26 -45 105 -29 95 18
294 18 375 -1 36 -9 100 -32 143 -52 82 -38 108 -38 115 1 12 60 -204 142
-397 150 -53 2 -109 2 -126 0z"/>
</g>
</svg>
