<?xml version="1.0" standalone="no"?>
<!DOCTYPE svg PUBLIC "-//W3C//DTD SVG 20010904//EN"
 "http://www.w3.org/TR/2001/REC-SVG-20010904/DTD/svg10.dtd">
<svg version="1.0" xmlns="http://www.w3.org/2000/svg"
 width="752.000000pt" height="395.000000pt" viewBox="0 0 752.000000 395.000000"
 preserveAspectRatio="xMidYMid meet">

<g transform="translate(0.000000,395.000000) scale(0.100000,-0.100000)"
fill="#353535" stroke="none">
<path d="M0 1975 l0 -1975 3760 0 3760 0 0 1975 0 1975 -3760 0 -3760 0 0
-1975z m4090 630 c32 -34 85 -34 120 0 18 17 32 23 48 18 18 -4 22 -12 22 -46
0 -56 39 -97 91 -97 48 0 61 -33 23 -62 -32 -26 -34 -101 -3 -134 32 -34 18
-64 -30 -64 -48 0 -91 -41 -91 -88 0 -22 -6 -35 -21 -43 -18 -9 -25 -7 -48 15
-37 35 -98 36 -130 2 -20 -21 -27 -23 -48 -13 -20 9 -24 17 -21 43 1 22 -5 43
-20 64 -19 25 -30 30 -63 30 -32 0 -41 4 -48 23 -7 18 -3 27 20 49 38 35 39
84 3 127 -21 25 -23 34 -14 52 10 17 18 20 44 15 27 -5 37 -1 65 28 28 28 32
39 27 62 -12 48 35 60 74 19z m-242 -187 c17 -22 32 -46 32 -54 0 -8 -13 -26
-30 -41 -35 -30 -36 -38 -14 -93 15 -38 18 -40 58 -40 54 0 66 -13 66 -71 0
-45 1 -47 43 -63 56 -21 59 -21 87 9 29 31 63 32 87 2 29 -36 38 -38 86 -18
43 19 46 22 49 62 2 23 9 44 16 47 9 3 12 -41 12 -197 l0 -201 -581 0 -580 0
3 323 c3 345 4 348 53 367 11 5 146 9 300 9 l280 0 33 -41z m486 -756 c-3 -99
42 -92 -574 -92 -604 0 -562 -6 -576 77 -12 79 -62 73 578 71 l573 -3 -1 -53z
m-396 -195 c12 -29 22 -56 22 -60 0 -4 -90 -7 -200 -7 -110 0 -200 3 -200 7 0
4 10 31 22 60 l22 53 156 0 156 0 22 -53z m190 -116 c8 -5 12 -17 10 -27 -3
-18 -19 -19 -378 -19 -359 0 -375 1 -378 19 -2 10 2 22 10 27 7 5 173 9 368 9
195 0 361 -4 368 -9z"/>
<path d="M4061 2503 c-49 -24 -82 -80 -83 -141 -1 -156 169 -228 278 -118 57
56 67 114 33 183 -32 64 -77 93 -143 93 -28 0 -66 -8 -85 -17z m164 -53 c14
-13 30 -41 36 -63 19 -72 -45 -157 -121 -157 -30 0 -75 25 -99 56 -40 51 -20
147 37 179 39 22 116 14 147 -15z"/>
<path d="M3431 2294 c-22 -86 -21 -104 3 -104 9 0 22 32 35 85 26 103 26 105
2 105 -15 0 -23 -16 -40 -86z"/>
<path d="M3296 2330 c-41 -45 -40 -54 12 -103 26 -25 30 -26 42 -12 11 13 9
19 -9 38 -26 29 -26 35 1 64 20 21 20 25 7 39 -14 13 -20 11 -53 -26z"/>
<path d="M3550 2355 c-11 -13 -10 -19 9 -38 26 -29 26 -35 -1 -64 -20 -21 -20
-25 -7 -39 14 -13 19 -11 52 26 21 22 37 44 37 48 0 4 -17 25 -38 45 -34 34
-40 36 -52 22z"/>
<path d="M3260 2120 c0 -13 7 -20 20 -20 13 0 20 7 20 20 0 13 -7 20 -20 20
-13 0 -20 -7 -20 -20z"/>
<path d="M3360 2120 c0 -19 7 -20 220 -20 213 0 220 1 220 20 0 19 -7 20 -220
20 -213 0 -220 -1 -220 -20z"/>
<path d="M3260 2020 c0 -13 7 -20 20 -20 13 0 20 7 20 20 0 13 -7 20 -20 20
-13 0 -20 -7 -20 -20z"/>
<path d="M3360 2020 c0 -19 7 -20 260 -20 253 0 260 1 260 20 0 19 -7 20 -260
20 -253 0 -260 -1 -260 -20z"/>
<path d="M3260 1930 c0 -13 7 -20 20 -20 13 0 20 7 20 20 0 13 -7 20 -20 20
-13 0 -20 -7 -20 -20z"/>
<path d="M3360 1930 c0 -20 7 -20 295 -20 288 0 295 0 295 20 0 20 -7 20 -295
20 -288 0 -295 0 -295 -20z"/>
<path d="M4000 1930 c0 -13 7 -20 20 -20 13 0 20 7 20 20 0 13 -7 20 -20 20
-13 0 -20 -7 -20 -20z"/>
<path d="M4100 1930 c0 -13 7 -20 20 -20 13 0 20 7 20 20 0 13 -7 20 -20 20
-13 0 -20 -7 -20 -20z"/>
<path d="M3260 1830 c0 -13 7 -20 20 -20 13 0 20 7 20 20 0 13 -7 20 -20 20
-13 0 -20 -7 -20 -20z"/>
<path d="M3360 1830 c0 -20 7 -20 355 -20 348 0 355 0 355 20 0 20 -7 20 -355
20 -348 0 -355 0 -355 -20z"/>
<path d="M4120 1830 c0 -13 7 -20 20 -20 13 0 20 7 20 20 0 13 -7 20 -20 20
-13 0 -20 -7 -20 -20z"/>
<path d="M4220 1830 c0 -13 7 -20 20 -20 13 0 20 7 20 20 0 13 -7 20 -20 20
-13 0 -20 -7 -20 -20z"/>
<path d="M3740 1640 c0 -13 7 -20 20 -20 13 0 20 7 20 20 0 13 -7 20 -20 20
-13 0 -20 -7 -20 -20z"/>
</g>
</svg>
