<svg xmlns="http://www.w3.org/2000/svg" version="1.0" viewBox="0 0 752 395"><g fill="#373737" stroke-width="0"><path d="M0 197.5V395h752V0H0v197.5zM428.9 126c7.5 3.8 10.6 10.4 9.9 20.9-1.2 15.8-16.1 32-29.9 32.5-6.9.2-10.3-2.6-10.7-8.7-.2-3.6.2-5.1 1.7-6.6 1.2-1.2 2.8-2.1 3.6-2.1 1.8 0 3.8 3.7 3.1 5.7-1.7 4.3 5.4 5.7 10.9 2.3 4.2-2.6 10.1-11.2 11.6-17 1.7-6.4.5-11.3-3.6-15.5-6.8-6.7-17.5-7-30.4-.9-19 8.9-35.1 26-35.1 37.2 0 4.4 2.5 9.7 5.5 11.6 1.3.9 12.4 4.8 24.7 8.7 12.3 3.9 24 8.1 26 9.5 5.6 3.6 7.8 8.7 7.8 18.2 0 10.2-2 16.6-7.4 24-7.9 10.7-22.5 19.1-39.6 22.7-9.3 2-28.8 2-36.3 0-11.5-3-20.3-8.8-23.9-15.9-2.7-5.2-2.9-13.8-.5-18.4 2.3-4.2 9.2-9.2 12.9-9.2 4.5 0 4.5 2.5-.1 7.5-4.7 5.2-5.3 9.3-2.2 16 2.4 5.2 5.3 7.8 12.6 11.2 5.8 2.7 6.6 2.8 21 2.8 11.6-.1 16.5-.5 21.5-1.9 14.2-4.1 27.3-13.3 32-22.6 1.2-2.4 2.4-6.9 2.7-9.9.4-4.7.1-6.1-1.9-9-1.2-1.9-3.4-4.3-4.8-5.3s-11.9-5-23.4-8.9c-11.5-3.8-22.1-7.6-23.6-8.4-10.4-5.4-12.8-21.5-5.3-36.3 5.4-10.7 21-25 33.1-30.5 13.2-5.9 30.6-7.6 38.1-3.7zm-66.2 8.6c.9 2.3-2 7.2-8.6 14.9-7.4 8.5-10.6 10.9-15.1 11-2.5.1-4.8 1-6.9 2.8-1.8 1.4-4.9 3.2-7.1 3.8-3.3 1-4.3.9-6.5-.5-9.3-6.1 8.7-34.9 20-32 1.4.3 3 1.4 3.5 2.4 1.5 2.7 1.2 9.6-.4 13.5-.8 1.9-1.1 3.5-.7 3.5 1.3 0 14.5-14.2 16.7-17.9 2-3.4 4.1-4 5.1-1.5z"/><path d="M336.4 142.1c-1.7 2.2-2.3 4.5-1.4 5.9 1.1 1.7 3.2-2.3 2.8-5.2-.2-1.8-.5-1.9-1.4-.7zm-10.2 7.4c-2.6 3.2-3.7 6.8-2.8 9 .5 1.4.9 1.4 3.5 0 4-2 4.2-2.6 2.8-7.6l-1.3-4.3-2.2 2.9z"/></g><path fill="#FFF" d="M408.5 125.5c-16.8 3.2-31.9 12.1-42.9 25.4-8.2 9.8-12.4 21.3-11.1 30 .8 5.6 1.8 7.7 5.8 11.8 2.6 2.8 6.5 4.4 26 10.9 24.7 8.2 28.5 10.4 30.8 17.1 2.5 7.7-.7 18.3-7.8 25.7-12 12.4-29.8 18.3-53.3 17.4-10.8-.4-12.3-.7-18.4-3.7-7.8-3.8-12.2-9-13.2-15.7-.9-5.9 0-8.7 4.1-13.3 4.1-4.5 4.3-5.1 1.2-5.1-3.9 0-10.6 5.6-12.9 10.7-1.8 4.1-1.9 5.2-.9 9.8 5.2 23 46.5 30.4 79.9 14.4 9.8-4.7 19.5-13.6 23.5-21.5 5.2-10.3 5.5-23.7.6-30.5-3.3-4.6-9.1-7.3-32.1-14.4-17.5-5.5-22.3-7.4-24.7-9.7-7.6-7.5-4.5-20.6 7.8-32.7 20.9-20.6 45.2-26.9 56-14.6 5.1 5.8 5.3 13.3.6 22.4-3.7 7.3-9.4 12.2-14.9 12.8-5.7.7-8-.9-7.2-4.8.3-1.7 0-3.2-1-4-2.3-1.9-5.4 1.5-5.4 6.2 0 9.7 12 11.2 23.2 3 14.7-10.8 20.5-31.5 11.7-41.5-5.6-6.4-13.7-8.3-25.4-6.1zm-51.9 13.9c-4.8 7.1-13.9 15.6-16.5 15.6-2.5 0-2.5.3-.1-4.5 3.1-6.2 2.4-13.4-1.5-14.9-2.8-1-7.9 1.9-12.7 7.3-5.6 6.2-8.8 12.5-8.8 17.3 0 3.5 2.4 6.8 4.9 6.8 2 0 8.5-3.6 10.6-6 1.5-1.6 2.6-2 5-1.6 2.5.5 4 0 7.3-2.3 6.5-4.8 17.2-18.4 17.2-22.1 0-2.2-1.8-.7-5.4 4.4zm-19.2 8.8c-.9 2.1-2.1 3.8-2.6 3.8-.4 0-.8-2.2-.8-4.9 0-4 .4-5.3 2.3-6.6 2.1-1.5 2.2-1.5 2.5 1.1.2 1.5-.4 4.4-1.4 6.6zm-6 6.8c.1 1.9-.7 2.9-3.3 4.2-8 4-8.4-4.4-.7-13l2.1-2.4.9 4.4c.4 2.4.9 5.4 1 6.8z"/><path fill="#CFCFCF" d="M438.2 144c0 1.4.2 1.9.5 1.2.2-.6.2-1.8 0-2.5-.3-.6-.5-.1-.5 1.3z"/><path fill="#434343" d="M407.8 179.7c.7.3 1.6.2 1.9-.1.4-.3-.2-.6-1.3-.5-1.1 0-1.4.3-.6.6zm-49.5 84c.9.2 2.3.2 3 0 .6-.3-.1-.5-1.8-.5-1.6 0-2.2.2-1.2.5z"/><path fill="#8E8E8E" d="M353.1 177.6c0 1.1.3 1.4.6.6.3-.7.2-1.6-.1-1.9-.3-.4-.6.2-.5 1.3z"/><path fill="#505050" d="M314.1 242.6c0 1.1.3 1.4.6.6.3-.7.2-1.6-.1-1.9-.3-.4-.6.2-.5 1.3z"/><path fill="#C2C2C2" d="M410.8 131.7c.6.2 1.8.2 2.5 0 .6-.3.1-.5-1.3-.5-1.4 0-1.9.2-1.2.5z"/><path fill="#6E6E6E" d="M329.1 147.6c0 1.1.3 1.4.6.6.3-.7.2-1.6-.1-1.9-.3-.4-.6.2-.5 1.3z"/><path fill="#BDBDBD" d="M417.1 226.6c0 1.1.3 1.4.6.6.3-.7.2-1.6-.1-1.9-.3-.4-.6.2-.5 1.3z"/></svg>